HIERARCHY
ROOT Hips
{
	OFFSET 0.000000 100.481300 0.000000
	CHANNELS 6 Xposition Yposition Zposition Xrotation Yrotation Zrotation
	JOINT Spine
	{
		OFFSET -0.279200 12.230698 -2.892100
		CHANNELS 3 Xrotation Yrotation Zrotation
		JOINT Spine1
		{
			OFFSET -0.325700 14.269203 -3.374200
			CHANNELS 3 Xrotation Yrotation Zrotation
			JOINT Spine2
			{
				OFFSET -0.372300 16.307602 -0.352600
				CHANNELS 3 Xrotation Yrotation Zrotation
				JOINT Neck
				{
					OFFSET -0.418800 17.814194 8.416900
					CHANNELS 3 Xrotation Yrotation Zrotation
					JOINT Head
					{
						OFFSET 0.000000 7.031097 3.806800
						CHANNELS 3 Xrotation Yrotation Zrotation
						JOINT HeadTop_End
						{
							OFFSET 0.000000 24.646606 12.978600
							CHANNELS 3 Xrotation Yrotation Zrotation
							End Site
							{
								OFFSET 0.000000 27.854965 0.000000
							}
						}
					}
				}
				JOINT LeftShoulder
				{
					OFFSET 16.952999 14.495407 -7.737500
					CHANNELS 3 Xrotation Yrotation Zrotation
					JOINT LeftArm
					{
						OFFSET 9.308998 -2.777710 0.208600
						CHANNELS 3 Xrotation Yrotation Zrotation
						JOINT LeftForeArm
						{
							OFFSET 29.972298 0.000000 0.000000
							CHANNELS 3 Xrotation Yrotation Zrotation
							JOINT LeftHand
							{
								OFFSET 26.026505 0.000000 0.000000
								CHANNELS 3 Xrotation Yrotation Zrotation
								JOINT LeftHandThumb1
								{
									OFFSET 12.240501 -7.147949 9.207150
									CHANNELS 3 Xrotation Yrotation Zrotation
									JOINT LeftHandThumb2
									{
										OFFSET 4.138618 -2.389435 2.389433
										CHANNELS 3 Xrotation Yrotation Zrotation
										JOINT LeftHandThumb3
										{
											OFFSET 2.726913 -1.574387 1.574386
											CHANNELS 3 Xrotation Yrotation Zrotation
											JOINT LeftHandThumb4
											{
												OFFSET 3.941010 -2.275345 2.275342
												CHANNELS 3 Xrotation Yrotation Zrotation
												End Site
												{
													OFFSET -0.005798 5.087799 0.009903
												}
											}
										}
									}
								}
								JOINT LeftHandIndex1
								{
									OFFSET 24.424698 -1.985611 5.953459
									CHANNELS 3 Xrotation Yrotation Zrotation
									JOINT LeftHandIndex2
									{
										OFFSET 6.426697 0.000000 0.000000
										CHANNELS 3 Xrotation Yrotation Zrotation
										JOINT LeftHandIndex3
										{
											OFFSET 5.337898 0.000000 0.000000
											CHANNELS 3 Xrotation Yrotation Zrotation
											JOINT LeftHandIndex4
											{
												OFFSET 4.409401 0.000000 0.000000
												CHANNELS 3 Xrotation Yrotation Zrotation
												End Site
												{
													OFFSET 0.000000 4.409363 0.014373
												}
											}
										}
									}
								}
								JOINT LeftHandMiddle1
								{
									OFFSET 23.810104 0.000000 0.000000
									CHANNELS 3 Xrotation Yrotation Zrotation
									JOINT LeftHandMiddle2
									{
										OFFSET 7.176498 0.000000 0.000000
										CHANNELS 3 Xrotation Yrotation Zrotation
										JOINT LeftHandMiddle3
										{
											OFFSET 6.774902 0.000000 0.000000
											CHANNELS 3 Xrotation Yrotation Zrotation
											JOINT LeftHandMiddle4
											{
												OFFSET 5.403328 0.000000 0.000000
												CHANNELS 3 Xrotation Yrotation Zrotation
												End Site
												{
													OFFSET -0.027702 5.403244 0.017414
												}
											}
										}
									}
								}
								JOINT LeftHandRing1
								{
									OFFSET 22.908401 -0.839279 -6.020567
									CHANNELS 3 Xrotation Yrotation Zrotation
									JOINT LeftHandRing2
									{
										OFFSET 6.337502 0.000000 0.000000
										CHANNELS 3 Xrotation Yrotation Zrotation
										JOINT LeftHandRing3
										{
											OFFSET 5.779297 0.000000 0.000000
											CHANNELS 3 Xrotation Yrotation Zrotation
											JOINT LeftHandRing4
											{
												OFFSET 4.965698 0.000000 0.000000
												CHANNELS 3 Xrotation Yrotation Zrotation
												End Site
												{
													OFFSET 0.000000 4.965668 0.016186
												}
											}
										}
									}
								}
								JOINT LeftHandPinky1
								{
									OFFSET 20.037003 -1.530319 -10.950146
									CHANNELS 3 Xrotation Yrotation Zrotation
									JOINT LeftHandPinky2
									{
										OFFSET 5.254700 0.000000 0.000000
										CHANNELS 3 Xrotation Yrotation Zrotation
										JOINT LeftHandPinky3
										{
											OFFSET 4.810204 0.000000 0.000000
											CHANNELS 3 Xrotation Yrotation Zrotation
											JOINT LeftHandPinky4
											{
												OFFSET 3.647202 0.000000 0.000000
												CHANNELS 3 Xrotation Yrotation Zrotation
												End Site
												{
													OFFSET 0.000000 3.647186 0.011889
												}
											}
										}
									}
								}
							}
						}
					}
				}
				JOINT RightShoulder
				{
					OFFSET -15.141001 14.495407 -7.737500
					CHANNELS 3 Xrotation Yrotation Zrotation
					JOINT RightArm
					{
						OFFSET -9.308998 -2.777710 0.208500
						CHANNELS 3 Xrotation Yrotation Zrotation
						JOINT RightForeArm
						{
							OFFSET -29.972300 0.000000 0.000000
							CHANNELS 3 Xrotation Yrotation Zrotation
							JOINT RightHand
							{
								OFFSET -26.026505 0.000000 0.000000
								CHANNELS 3 Xrotation Yrotation Zrotation
								JOINT RightHandThumb1
								{
									OFFSET -12.240601 -7.148026 9.207092
									CHANNELS 3 Xrotation Yrotation Zrotation
									JOINT RightHandThumb2
									{
										OFFSET -4.138618 -2.389435 2.389433
										CHANNELS 3 Xrotation Yrotation Zrotation
										JOINT RightHandThumb3
										{
											OFFSET -2.726974 -1.574417 1.574421
											CHANNELS 3 Xrotation Yrotation Zrotation
											JOINT RightHandThumb4
											{
												OFFSET -3.941010 -2.275345 2.275343
												CHANNELS 3 Xrotation Yrotation Zrotation
												End Site
												{
													OFFSET 0.005814 5.087799 0.009927
												}
											}
										}
									}
								}
								JOINT RightHandIndex1
								{
									OFFSET -24.424698 -1.985657 5.953444
									CHANNELS 3 Xrotation Yrotation Zrotation
									JOINT RightHandIndex2
									{
										OFFSET -6.426697 0.000000 0.000000
										CHANNELS 3 Xrotation Yrotation Zrotation
										JOINT RightHandIndex3
										{
											OFFSET -5.337898 0.000000 0.000000
											CHANNELS 3 Xrotation Yrotation Zrotation
											JOINT RightHandIndex4
											{
												OFFSET -4.409401 0.000000 0.000000
												CHANNELS 3 Xrotation Yrotation Zrotation
												End Site
												{
													OFFSET 0.000000 4.409363 0.014408
												}
											}
										}
									}
								}
								JOINT RightHandMiddle1
								{
									OFFSET -23.810097 0.000000 0.000000
									CHANNELS 3 Xrotation Yrotation Zrotation
									JOINT RightHandMiddle2
									{
										OFFSET -7.176498 0.000000 0.000000
										CHANNELS 3 Xrotation Yrotation Zrotation
										JOINT RightHandMiddle3
										{
											OFFSET -6.774902 0.000000 0.000000
											CHANNELS 3 Xrotation Yrotation Zrotation
											JOINT RightHandMiddle4
											{
												OFFSET -5.403328 0.000000 0.000000
												CHANNELS 3 Xrotation Yrotation Zrotation
												End Site
												{
													OFFSET 0.027702 5.403244 0.017457
												}
											}
										}
									}
								}
								JOINT RightHandRing1
								{
									OFFSET -22.908302 -0.839325 -6.020576
									CHANNELS 3 Xrotation Yrotation Zrotation
									JOINT RightHandRing2
									{
										OFFSET -6.337502 0.000000 0.000000
										CHANNELS 3 Xrotation Yrotation Zrotation
										JOINT RightHandRing3
										{
											OFFSET -5.779297 0.000000 0.000000
											CHANNELS 3 Xrotation Yrotation Zrotation
											JOINT RightHandRing4
											{
												OFFSET -4.965698 0.000000 0.000000
												CHANNELS 3 Xrotation Yrotation Zrotation
												End Site
												{
													OFFSET 0.000000 4.965668 0.016226
												}
											}
										}
									}
								}
								JOINT RightHandPinky1
								{
									OFFSET -20.037003 -1.530334 -10.950259
									CHANNELS 3 Xrotation Yrotation Zrotation
									JOINT RightHandPinky2
									{
										OFFSET -5.254700 0.000000 0.000000
										CHANNELS 3 Xrotation Yrotation Zrotation
										JOINT RightHandPinky3
										{
											OFFSET -4.810204 0.000000 0.000000
											CHANNELS 3 Xrotation Yrotation Zrotation
											JOINT RightHandPinky4
											{
												OFFSET -3.647202 0.000000 0.000000
												CHANNELS 3 Xrotation Yrotation Zrotation
												End Site
												{
													OFFSET 0.000000 3.647186 0.011917
												}
											}
										}
									}
								}
							}
						}
					}
				}
			}
		}
	}
	JOINT LeftUpLeg
	{
		OFFSET 15.427100 -6.655098 0.678600
		CHANNELS 3 Xrotation Yrotation Zrotation
		JOINT LeftLeg
		{
			OFFSET 4.081073 -39.591068 13.024000
			CHANNELS 3 Xrotation Yrotation Zrotation
			JOINT LeftFoot
			{
				OFFSET -4.081074 -37.707932 -15.979700
				CHANNELS 3 Xrotation Yrotation Zrotation
				JOINT LeftToeBase
				{
					OFFSET 5.346399 -15.068900 20.645000
					CHANNELS 3 Xrotation Yrotation Zrotation
					JOINT LeftToe_End
					{
						OFFSET 2.754700 0.931300 11.300900
						CHANNELS 3 Xrotation Yrotation Zrotation
						End Site
						{
							OFFSET 0.000000 11.669021 0.000000
						}
					}
				}
			}
		}
	}
	JOINT RightUpLeg
	{
		OFFSET -15.569500 -6.655098 0.678600
		CHANNELS 3 Xrotation Yrotation Zrotation
		JOINT RightLeg
		{
			OFFSET -4.081825 -39.591045 13.023800
			CHANNELS 3 Xrotation Yrotation Zrotation
			JOINT RightFoot
			{
				OFFSET 4.081824 -37.707954 -15.979600
				CHANNELS 3 Xrotation Yrotation Zrotation
				JOINT RightToeBase
				{
					OFFSET -5.346400 -15.068900 20.645000
					CHANNELS 3 Xrotation Yrotation Zrotation
					JOINT RightToe_End
					{
						OFFSET -2.754700 0.931300 11.300900
						CHANNELS 3 Xrotation Yrotation Zrotation
						End Site
						{
							OFFSET 0.000000 11.669021 0.000000
						}
					}
				}
			}
		}
	}
}
MOTION
Frames: 4
Frame Time: 0.033333
2.844319 90.145958 -0.149158 0.806921 -0.332358 6.936936 0.209760 -0.711256 -4.248449 -0.082362 -0.360055 -0.474245 -0.087699 -0.371900 -0.471493 -1.006355 0.268639 -1.426138 -12.045780 1.125603 -4.483182 0.000001 -0.000000 0.000000 1.989318 -12.111466 -11.109656 7.833401 -19.219917 -53.505083 0.000008 -18.030111 0.000005 -22.465535 6.350806 25.053629 -1.225880 20.067910 15.307086 8.461755 13.947426 -3.382733 1.615970 4.645326 0.830014 0.000002 -0.000001 0.000000 0.493796 2.565020 -21.790390 0.445698 2.441385 -20.689044 0.112277 1.240851 -10.339796 0.000002 0.000000 0.000001 0.493086 2.563233 -21.774380 0.446379 2.443185 -20.705068 0.112273 1.240846 -10.339813 -0.000002 0.000000 -0.000000 0.493796 2.565020 -21.790390 0.445699 2.441387 -20.689044 0.112273 1.240849 -10.339800 0.000002 0.000000 0.000000 1.990080 6.334991 -21.396143 0.449149 -1.616809 -21.167496 0.112275 1.240846 -10.339790 0.000002 0.000000 -0.000001 1.027893 1.079761 11.294867 21.985544 24.159305 55.103630 -0.000015 30.297555 0.000021 -18.746238 2.970147 -9.675585 18.351489 -29.748971 -9.261506 4.332909 -19.085738 2.345912 -1.545597 -5.105382 -0.938529 -0.000003 -0.000001 -0.000001 0.405229 -2.343252 19.619735 0.437377 -2.431513 20.391933 0.110159 -1.235256 10.191322 -0.000002 -0.000001 -0.000002 0.405229 -2.343252 19.619732 0.437377 -2.431517 20.391934 0.110156 -1.235258 10.191324 0.000001 0.000001 0.000002 0.405229 -2.343250 19.619737 0.437378 -2.431518 20.391928 0.110162 -1.235257 10.191318 -0.000000 0.000001 0.000001 0.405229 -2.343252 19.619734 0.437379 -2.431519 20.391933 0.110160 -1.235254 10.191321 0.000003 0.000000 0.000003 -14.891730 -0.361041 -8.434844 24.920227 0.015206 -4.461770 -11.044003 -0.529968 6.051521 -0.002423 -0.000000 0.000003 0.000000 -0.000000 0.000000 -33.709538 -6.769468 -8.597373 53.307376 -1.769674 -1.098960 7.961524 -0.011871 -8.795013 -22.495894 -0.644825 6.193619 0.000000 0.000000 -0.000000 
2.878696 91.261375 4.098441 -1.707698 -0.250591 5.345084 0.431247 -1.365313 -3.368274 0.155327 -0.912629 -0.333056 0.141535 -0.920021 -0.323797 -1.579625 0.218003 -1.666016 -9.561286 0.178390 -4.049544 0.000000 -0.000000 -0.000000 2.088986 -12.385071 -11.193037 7.234286 -20.899841 -51.523170 0.000007 -22.126987 0.000013 -21.291834 6.223994 21.705042 -1.225881 20.067910 15.307091 8.461756 13.947424 -3.382730 1.615968 4.645325 0.830006 0.000000 -0.000000 0.000001 0.493794 2.565020 -21.790397 0.445701 2.441383 -20.689044 0.112276 1.240851 -10.339797 -0.000000 0.000001 0.000001 0.493086 2.563237 -21.774378 0.446379 2.443188 -20.705066 0.112272 1.240847 -10.339813 -0.000002 -0.000001 -0.000000 0.493794 2.565020 -21.790392 0.445698 2.441387 -20.689043 0.112272 1.240848 -10.339800 0.000001 -0.000001 0.000001 1.990081 6.334993 -21.396141 0.449148 -1.616808 -21.167499 0.112276 1.240848 -10.339791 0.000002 0.000001 0.000001 0.969517 0.769470 11.116182 22.510586 22.566035 56.488349 0.000001 27.214815 -0.000008 -18.819145 -0.799429 -7.853529 18.351491 -29.748974 -9.261512 4.332911 -19.085741 2.345919 -1.545594 -5.105383 -0.938524 -0.000002 0.000000 0.000002 0.405228 -2.343250 19.619737 0.437379 -2.431515 20.391934 0.110159 -1.235255 10.191321 -0.000000 -0.000001 -0.000002 0.405228 -2.343250 19.619737 0.437378 -2.431517 20.391934 0.110156 -1.235255 10.191320 -0.000002 -0.000000 0.000002 0.405227 -2.343247 19.619737 0.437377 -2.431518 20.391933 0.110159 -1.235255 10.191320 0.000000 0.000001 -0.000000 0.405228 -2.343250 19.619737 0.437378 -2.431520 20.391933 0.110159 -1.235255 10.191318 -0.000001 -0.000001 -0.000001 -8.161682 -0.938604 -7.608767 23.327295 -2.224312 -3.605462 -13.448635 -1.003762 7.912398 -0.003524 0.000002 0.000003 0.000000 -0.000000 -0.000000 -30.897372 -6.558167 -7.107698 42.974235 -4.228808 0.495315 4.197249 0.345705 -9.521238 -13.241912 -0.036224 2.121522 0.000000 0.000000 0.000000 
2.785531 92.175209 7.957168 -2.126705 0.312035 4.256522 0.336530 -1.959797 -2.725348 0.048305 -1.311237 -0.433019 0.025046 -1.318197 -0.413839 -1.874601 0.175625 -1.694555 -8.438105 -0.318557 -3.639907 0.000000 0.000000 0.000001 2.126506 -12.520526 -11.218760 7.441146 -21.105182 -49.554774 -0.000001 -26.783752 -0.000000 -20.230798 6.924411 19.502039 -1.225880 20.067909 15.307093 8.461756 13.947421 -3.382736 1.615970 4.645326 0.830008 0.000002 0.000001 0.000003 0.493796 2.565018 -21.790397 0.445699 2.441385 -20.689043 0.112274 1.240852 -10.339796 -0.000000 -0.000001 0.000001 0.493084 2.563231 -21.774378 0.446378 2.443183 -20.705068 0.112275 1.240847 -10.339813 -0.000001 0.000002 0.000001 0.493796 2.565018 -21.790390 0.445698 2.441387 -20.689041 0.112272 1.240848 -10.339801 -0.000003 0.000000 -0.000001 1.990080 6.334991 -21.396138 0.449148 -1.616810 -21.167496 0.112274 1.240846 -10.339790 -0.000001 -0.000000 0.000001 0.946533 0.646867 11.053576 23.347909 21.331705 57.434364 0.000005 26.019401 -0.000021 -18.433005 -2.917696 -6.635631 18.351489 -29.748974 -9.261510 4.332909 -19.085738 2.345918 -1.545596 -5.105384 -0.938530 -0.000003 -0.000002 -0.000000 0.405229 -2.343249 19.619735 0.437379 -2.431516 20.391934 0.110158 -1.235255 10.191324 -0.000000 0.000000 0.000003 0.405229 -2.343249 19.619734 0.437380 -2.431517 20.391931 0.110159 -1.235256 10.191325 -0.000000 -0.000000 -0.000001 0.405228 -2.343246 19.619737 0.437379 -2.431520 20.391931 0.110159 -1.235255 10.191318 0.000000 0.000000 -0.000001 0.405229 -2.343249 19.619734 0.437379 -2.431520 20.391931 0.110160 -1.235254 10.191322 -0.000001 0.000001 0.000002 -3.658301 -0.805223 -7.057478 21.199217 -3.495910 -2.498688 -15.174020 -1.620226 8.389326 -0.009997 -0.000002 0.000006 -0.000000 0.000000 -0.000000 -29.301153 -6.796800 -5.837213 28.577981 -6.573461 1.281546 5.475993 0.808852 -11.651050 -1.939179 -0.014428 1.357113 -0.000000 0.000001 0.000001 
2.571968 92.417358 11.475655 -1.850863 0.871773 3.383334 0.059154 -2.443191 -2.089593 -0.284657 -1.570523 -0.722453 -0.317592 -1.581819 -0.690238 -1.987759 0.140650 -1.601385 -8.312625 -0.492674 -3.313813 -0.000001 0.000000 -0.000000 2.122657 -12.532167 -11.212353 7.907243 -20.248191 -47.858985 -0.000005 -31.208432 -0.000008 -19.241918 7.665808 18.519109 -1.225882 20.067910 15.307091 8.461756 13.947420 -3.382737 1.615969 4.645325 0.830004 -0.000002 0.000001 0.000000 0.493794 2.565020 -21.790397 0.445704 2.441387 -20.689044 0.112276 1.240853 -10.339796 -0.000001 0.000000 -0.000000 0.493083 2.563236 -21.774380 0.446381 2.443186 -20.705068 0.112272 1.240845 -10.339812 -0.000001 0.000001 0.000001 0.493794 2.565020 -21.790390 0.445699 2.441387 -20.689041 0.112276 1.240850 -10.339800 0.000000 0.000002 0.000001 1.990079 6.334993 -21.396138 0.449148 -1.616808 -21.167494 0.112272 1.240846 -10.339787 -0.000002 0.000002 -0.000001 0.948474 0.642771 11.073014 24.281876 20.509217 58.030872 -0.000013 25.854967 0.000030 -17.990194 -3.659510 -5.862591 18.351485 -29.748971 -9.261508 4.332911 -19.085738 2.345924 -1.545596 -5.105383 -0.938530 -0.000003 0.000002 -0.000003 0.405229 -2.343250 19.619737 0.437378 -2.431515 20.391929 0.110159 -1.235256 10.191320 -0.000000 0.000001 0.000004 0.405229 -2.343250 19.619734 0.437378 -2.431517 20.391933 0.110157 -1.235257 10.191320 -0.000000 0.000000 -0.000001 0.405228 -2.343248 19.619735 0.437379 -2.431519 20.391931 0.110159 -1.235255 10.191322 -0.000000 0.000000 0.000000 0.405229 -2.343250 19.619734 0.437378 -2.431519 20.391929 0.110160 -1.235254 10.191318 -0.000002 0.000000 -0.000000 -0.439045 0.237451 -6.191128 19.876624 -4.742049 -1.822988 -17.123335 -2.035154 8.008249 0.006005 0.000001 -0.005202 -0.000000 -0.000000 -0.000000 -30.746035 -7.474168 -6.064880 17.838943 -4.386338 1.868368 4.806484 -1.277927 -5.995499 0.262140 0.000003 0.000005 -0.000000 -0.000000 0.000000 
